<svg width="570" height="570" viewBox="0 0 570 570" fill="none" xmlns="http://www.w3.org/2000/svg">
<path d="M257 568.6C225.2 565.5 194.9 557.2 167 544.5V189.5L257 137.5V568.6Z" fill="black"/>
<path d="M257.1 1.3999C225.3 4.4999 194.9 12.7999 167 25.4999V154.5L257 102.5L257.1 1.3999Z" fill="black"/>
<path d="M395.9 22.3999L313.1 70.1999L313 1.3999C342.1 4.1999 370 11.3999 395.9 22.3999Z" fill="black"/>
<path d="M566.5 330H403.7L403.9 439.6C413 432.6 421.5 424.7 429.4 416.1C437.9 406.7 445.4 396.7 451.9 386H551.6C514.1 484.9 423.2 557.5 314.2 568.5L313.3 105.1L428.4 38.6001C484.5 71.3001 528.4 122.6 551.6 184H451.8C445.3 173.2 437.7 163.1 429.1 153.6C421.1 144.9 412.5 136.9 403.3 129.9L403.5 240H566.5C568.8 254.7 570 269.7 570 285C570 300.3 568.8 315.3 566.5 330Z" fill="black"/>
<path d="M0 286C0 285.7 0 285.3 0 285C0 273 0.7 261.3 2.2 249.7L167 154.5V189.5L0 286Z" fill="black"/>
</svg>
