<svg width="2100" height="1300" viewBox="0 0 2100 1300" fill="none" xmlns="http://www.w3.org/2000/svg">
<path d="M793.521 733.192H876.397V693.596H745V929.404H876.397V889.808H793.521V830.768H876.397V791.172H793.521V733.192Z" fill="white"/>
<path d="M1030.07 797.182V836.778H1095.94C1092.05 850.919 1088.51 858.343 1081.42 866.475C1069.03 881.323 1048.84 890.162 1028.65 890.162C987.214 890.162 954.631 855.869 954.631 812.03C954.631 767.485 986.152 733.545 1027.59 733.545C1050.97 733.545 1068.32 742.384 1085.67 762.889L1122.15 734.253C1099.13 705.263 1064.78 689 1026.53 689C957.11 689 905.401 741.677 905.401 812.03C905.401 881.677 957.464 934 1026.88 934C1060.17 934 1090.28 921.273 1114.01 897.586C1137.74 873.545 1148.36 846.323 1148.36 809.909V797.182H1030.07Z" fill="white"/>
<path d="M1231.93 693.596H1183.41V929.404H1231.93V693.596Z" fill="white"/>
<path d="M1329.81 889.455V693.596H1281.29V929.404H1408.79V889.455H1329.81Z" fill="white"/>
<path d="M1486.84 782.333L1563.69 929.404L1640.9 782.333V929.404H1689.42V693.596H1634.53L1563.69 836.778L1493.21 693.596H1438.31V929.404H1486.84V782.333Z" fill="white"/>
<path d="M1778.91 733.192H1861.78V693.596H1730.38V929.404H1861.78V889.808H1778.91V830.768H1861.78V791.172H1778.91V733.192Z" fill="white"/>
<path d="M1960.85 889.808L2071 693.596H1897.1V733.192H1995.21L1884.71 929.404H2060.38V889.808H1960.85Z" fill="white"/>
<path d="M793.507 367.596H745V603.404H793.507V367.596Z" fill="white"/>
<path d="M829.044 534.465C828.69 579.717 859.14 608 908.71 608C957.571 608 990.146 579.364 990.146 536.232C990.146 518.202 983.772 502.293 971.38 490.626C961.112 480.727 948.011 474.01 922.164 464.465C904.815 458.101 900.92 456.333 894.547 452.798C884.987 447.495 880.03 440.071 880.03 430.525C880.03 415.677 891.715 405.778 909.064 405.778C928.184 405.778 938.098 415.323 939.868 435.121H988.729C984.835 389.869 955.093 363 909.064 363C862.681 363 831.169 391.636 831.169 434.414C831.169 470.475 849.58 489.919 901.274 508.303C919.686 515.02 923.935 516.788 929.954 521.384C935.973 525.98 939.514 532.697 939.514 540.121C939.514 554.263 926.059 565.222 908.356 565.222C889.944 565.222 876.135 553.556 876.135 537.646V534.465H829.044Z" fill="white"/>
<path d="M1076 456.333L1152.83 603.404L1230.02 456.333V603.404H1278.53V367.596H1223.65L1152.83 510.778L1082.38 367.596H1027.49V603.404H1076V456.333Z" fill="white"/>
<path d="M1460.04 562.747L1473.49 603.404H1526.6L1445.87 367.596H1385.33L1303.89 603.404H1355.23L1369.39 562.747H1460.04ZM1447.29 523.152H1381.79L1414.72 425.576L1447.29 523.152Z" fill="white"/>
<path d="M1600.19 367.596H1551.68V603.404H1600.19V367.596Z" fill="white"/>
<path d="M1698.04 563.455V367.596H1649.54V603.404H1777V563.455H1698.04Z" fill="white"/>
<path d="M286 931.6C254.2 928.5 223.9 920.2 196 907.5V552.5L286 500.5V931.6Z" fill="white"/>
<path d="M286.1 364.4C254.3 367.5 223.9 375.8 196 388.5V517.5L286 465.5L286.1 364.4Z" fill="white"/>
<path d="M424.9 385.4L342.1 433.2L342 364.4C371.1 367.2 399 374.4 424.9 385.4Z" fill="white"/>
<path d="M595.5 693H432.7L432.9 802.6C442 795.6 450.5 787.7 458.4 779.1C466.9 769.7 474.4 759.7 480.9 749H580.6C543.1 847.9 452.2 920.5 343.2 931.5L342.3 468.1L457.4 401.6C513.5 434.3 557.4 485.6 580.6 547H480.8C474.3 536.2 466.7 526.1 458.1 516.6C450.1 507.9 441.5 499.9 432.3 492.9L432.5 603H595.5C597.8 617.7 599 632.7 599 648C599 663.3 597.8 678.3 595.5 693Z" fill="white"/>
<path d="M29 649C29 648.7 29 648.3 29 648C29 636 29.7 624.3 31.2 612.7L196 517.5V552.5L29 649Z" fill="white"/>
</svg>
